# xmcd
#
# Track frame offsets:
#	150
#	17676
#	31774
#	45211
#	62845
#	79580
#	94483
#	108620
#
# Disc length: 1646 seconds
#
# Revision: 0
# Processed by: cddbd v1.5.2PL0 Copyright (c) Steve Scherf et al.
# Submitted via: audiograbber 1.83.01
#
DISCID=59066c08
DTITLE=Will "Harmonica" Wilde - Nothin' But Trouble
DYEAR=1900
DGENRE=Blues
TTITLE0=Blues Takin' Over
TTITLE1=Nothin' But Trouble
TTITLE2=Fly Around The World
TTITLE3=Checkin' Up On My Baby
TTITLE4=I'm Tired
TTITLE5=Done Somebody Wrong
TTITLE6=Pain and Misery
TTITLE7=Jumping at Shadows
EXTD=
EXTT0=
EXTT1=
EXTT2=
EXTT3=
EXTT4=
EXTT5=
EXTT6=
EXTT7=
PLAYORDER=
